<svg xmlns="http://www.w3.org/2000/svg" viewBox="0 0 41.85 41.85"><defs><style>.cls-1{fill:#6c589a;}</style></defs><title>gear</title><g id="Lager_2" data-name="Lager 2"><g id="Lager_1-2" data-name="Lager 1"><path id="gear" class="cls-1" d="M41.85,19.7v2.46a3.06,3.06,0,0,1-2.63,2.7H36.37a2.62,2.62,0,0,0-.68.18,2.76,2.76,0,0,0-.87.56,2.63,2.63,0,0,0-.18,3.49h0l.4.4,1,1,.59.59a3.06,3.06,0,0,1-.05,3.77l-1.73,1.74a3.06,3.06,0,0,1-3.77,0L30.49,36l-1-1-.43-.44a2.48,2.48,0,0,0-.26-.19,2.79,2.79,0,0,0-1.13-.37h-.22a3.06,3.06,0,0,0-.73.1h0a3,3,0,0,0-.38.15l0,0h0l-.06,0-.16.08h0a2.75,2.75,0,0,0-.53.44l-.08.1-.08.08a2.6,2.6,0,0,0-.52,1.31h0v2.84a3.09,3.09,0,0,1-2.71,2.63H19.71A3.07,3.07,0,0,1,17,39.22V37h0v-.62h0a2.62,2.62,0,0,0-2.74-2.3H14l-.2,0h0l-.21.06h0l-.22.08-.06,0-.15.06-.13.07-.07.05-.16.12,0,0h0l-1.41,1.41-.6.59A3.06,3.06,0,0,1,7,36.6L5.26,34.86a3.06,3.06,0,0,1,0-3.77l.59-.59,1-1h0l.43-.43h0a2.58,2.58,0,0,0,.57-1.62h0A2.62,2.62,0,0,0,6,25l-.18,0,0,0-.25,0H2.63A3.09,3.09,0,0,1,0,22.15V19.7A3.11,3.11,0,0,1,2.64,17H5.49A2.74,2.74,0,0,0,7,16.26H7a2.58,2.58,0,0,0,.74-2.19h0a1.7,1.7,0,0,0,0-.22h0l-.05-.22,0-.07-.05-.16,0-.07a.91.91,0,0,0-.07-.14l-.06-.09L7.36,13l-.06-.09-.08-.1h0l-1.4-1.41-.59-.6A3.08,3.08,0,0,1,5.26,7L7,5.26a3.11,3.11,0,0,1,3.77,0l.6.61,1,1,.45.45a2.63,2.63,0,0,0,3.94-.86h0l.09-.2h0L16.9,6h0A.9.9,0,0,0,17,5.72v0l0-.21h0V2.64A3.08,3.08,0,0,1,19.71,0h2.44a3.1,3.1,0,0,1,2.71,2.64V5.5A2.55,2.55,0,0,0,25.6,7a2.51,2.51,0,0,0,.81.56,2.65,2.65,0,0,0,2.68-.36h0l1.41-1.4.59-.6a3.11,3.11,0,0,1,3.77,0L36.59,7a3.06,3.06,0,0,1,0,3.77l-.59.6-1,1-.45.44a2.94,2.94,0,0,0-.43.8,2.51,2.51,0,0,0-.12.82,2.57,2.57,0,0,0,1.16,2.17l0,0a2.74,2.74,0,0,0,1.13.4h2.84A3,3,0,0,1,41.85,19.7ZM20.93,12.64a8.3,8.3,0,1,0,8.3,8.3h0a8.31,8.31,0,0,0-8.3-8.3Z"/></g></g></svg>