<svg xmlns="http://www.w3.org/2000/svg" viewBox="0 0 45.74 45.79"><defs><style>.cls-1{fill:#6c589a;}</style></defs><title>register</title><g id="Lager_2" data-name="Lager 2"><g id="Lager_1-2" data-name="Lager 1"><g id="diary_2" data-name="diary 2"><path id="Path_93" data-name="Path 93" class="cls-1" d="M5.68,7.51V8.59H2.81a2.86,2.86,0,0,0,0,5.72H5.68V20H2.81a2.87,2.87,0,0,0,0,5.73H5.68v5.72H2.81a2.87,2.87,0,0,0,0,5.73H5.68v1.07a7.5,7.5,0,0,0,5.72,7.29V.22A7.5,7.5,0,0,0,5.68,7.51Z"/><path id="Path_94" data-name="Path 94" class="cls-1" d="M38.23,0H17.12V45.79H38.23a7.51,7.51,0,0,0,7.51-7.51h0V7.51A7.51,7.51,0,0,0,38.23,0Z"/></g></g></g></svg>